<?xml version="1.0" ?><!DOCTYPE svg  PUBLIC '-//W3C//DTD SVG 1.1//EN'  'http://www.w3.org/Graphics/SVG/1.1/DTD/svg11.dtd'><svg enable-background="new 0 0 256 256" id="Layer_1" version="1.1" viewBox="0 0 256 256" xml:space="preserve" xmlns="http://www.w3.org/2000/svg" xmlns:xlink="http://www.w3.org/1999/xlink"><g><circle cx="128" cy="128" fill="#39B39B" r="127"/><g><polygon fill="#EDF0F2" points="53.5,74.3 202.5,74.3 202.5,186.2 78.5,186.2 53.5,160.3   "/><polygon fill="#FFFFFD" points="202.5,74.3 53.5,74.3 53.5,186.2 177.5,186.2 202.5,160.3   "/><rect fill="#E37D39" height="30" width="149" x="53.5" y="74.3"/><ellipse cx="128" cy="114.6" fill="#E7E8E9" rx="6.4" ry="5.9"/><ellipse cx="146.8" cy="114.6" fill="#E7E8E9" rx="6.4" ry="5.9"/><ellipse cx="165.7" cy="114.6" fill="#E7E8E9" rx="6.4" ry="5.9"/><ellipse cx="184.5" cy="114.6" fill="#E7E8E9" rx="6.4" ry="5.9"/><ellipse cx="71.5" cy="128.6" fill="#E7E8E9" rx="6.4" ry="5.9"/><ellipse cx="90.3" cy="128.6" fill="#E65336" rx="6.4" ry="5.9"/><ellipse cx="109.2" cy="128.6" fill="#E7E8E9" rx="6.4" ry="5.9"/><ellipse cx="128" cy="128.6" fill="#E7E8E9" rx="6.4" ry="5.9"/><ellipse cx="146.8" cy="128.6" fill="#E7E8E9" rx="6.4" ry="5.9"/><ellipse cx="165.7" cy="128.6" fill="#E7E8E9" rx="6.4" ry="5.9"/><ellipse cx="184.5" cy="128.6" fill="#E7E8E9" rx="6.4" ry="5.9"/><ellipse cx="71.5" cy="142.6" fill="#E7E8E9" rx="6.4" ry="5.9"/><ellipse cx="90.3" cy="142.6" fill="#E65336" rx="6.4" ry="5.9"/><ellipse cx="109.2" cy="142.6" fill="#E7E8E9" rx="6.4" ry="5.9"/><ellipse cx="128" cy="142.6" fill="#E7E8E9" rx="6.4" ry="5.9"/><ellipse cx="146.8" cy="142.6" fill="#E7E8E9" rx="6.4" ry="5.9"/><ellipse cx="165.7" cy="142.6" fill="#E7E8E9" rx="6.4" ry="5.9"/><ellipse cx="184.5" cy="142.6" fill="#E7E8E9" rx="6.4" ry="5.9"/><ellipse cx="71.5" cy="156.6" fill="#E7E8E9" rx="6.4" ry="5.9"/><ellipse cx="90.3" cy="156.6" fill="#E65336" rx="6.4" ry="5.9"/><ellipse cx="109.2" cy="156.6" fill="#E7E8E9" rx="6.4" ry="5.9"/><ellipse cx="128" cy="156.6" fill="#E7E8E9" rx="6.4" ry="5.9"/><ellipse cx="146.8" cy="156.6" fill="#E7E8E9" rx="6.4" ry="5.9"/><ellipse cx="165.7" cy="156.6" fill="#E7E8E9" rx="6.4" ry="5.9"/><ellipse cx="184.5" cy="156.6" fill="#E7E8E9" rx="6.4" ry="5.9"/><ellipse cx="71.5" cy="170.6" fill="#E7E8E9" rx="6.4" ry="5.9"/><ellipse cx="90.3" cy="170.6" fill="#E65336" rx="6.4" ry="5.9"/><ellipse cx="109.2" cy="170.6" fill="#E7E8E9" rx="6.4" ry="5.9"/><g><rect fill="#0B2C48" height="2" width="6.8" x="61.5" y="80.5"/><rect fill="#2E4555" height="11.6" width="4.7" x="62.5" y="69.8"/><rect fill="#0B2C48" height="2" width="6.8" x="77.2" y="80.5"/><rect fill="#2E4555" height="11.6" width="4.7" x="78.3" y="69.8"/><rect fill="#0B2C48" height="2" width="6.8" x="93" y="80.5"/><rect fill="#2E4555" height="11.6" width="4.7" x="94.1" y="69.8"/><rect fill="#0B2C48" height="2" width="6.8" x="108.8" y="80.5"/><rect fill="#2E4555" height="11.6" width="4.7" x="109.9" y="69.8"/><rect fill="#0B2C48" height="2" width="6.8" x="124.6" y="80.5"/><rect fill="#2E4555" height="11.6" width="4.7" x="125.7" y="69.8"/><rect fill="#0B2C48" height="2" width="6.8" x="140.4" y="80.5"/><rect fill="#2E4555" height="11.6" width="4.7" x="141.4" y="69.8"/><rect fill="#0B2C48" height="2" width="6.8" x="156.2" y="80.5"/><rect fill="#2E4555" height="11.6" width="4.7" x="157.2" y="69.8"/><rect fill="#0B2C48" height="2" width="6.8" x="172" y="80.5"/><rect fill="#2E4555" height="11.6" width="4.7" x="173" y="69.8"/><rect fill="#0B2C48" height="2" width="6.8" x="187.8" y="80.5"/><rect fill="#2E4555" height="11.6" width="4.7" x="188.8" y="69.8"/></g><polygon fill="#BBC2C6" points="177.5,186.2 202.5,160.3 177.5,160.3   "/></g></g></svg>