<?xml version="1.0" ?><!DOCTYPE svg  PUBLIC '-//W3C//DTD SVG 1.1//EN'  'http://www.w3.org/Graphics/SVG/1.1/DTD/svg11.dtd'><svg enable-background="new 0 0 512 512" height="512px" id="Calque_1" version="1.1" viewBox="0 0 512 512" width="512px" xml:space="preserve" xmlns="http://www.w3.org/2000/svg" xmlns:xlink="http://www.w3.org/1999/xlink"><g><path d="M512,256c0,141.378-114.599,255.985-256.015,255.985C114.6,511.985,0,397.378,0,256   S114.6,0.015,255.985,0.015C397.401,0.015,512,114.622,512,256z" fill="#79B3D4"/><g><rect fill="#303F4E" height="142.446" width="310.254" x="100.873" y="229.509"/><g><rect fill="#22303D" height="44.981" width="310.254" x="100.873" y="140.045"/><rect fill="#22303D" height="44.982" width="310.254" x="100.873" y="185.057"/><polygon fill="#FFFFFF" points="144.416,140.045 101.085,140.045 134.992,185.026 178.323,185.026    "/><polygon fill="#FFFFFF" points="213.624,140.045 170.323,140.045 204.23,185.026 247.531,185.026    "/><polygon fill="#FFFFFF" points="282.893,140.045 239.562,140.045 273.469,185.026 316.8,185.026    "/><polygon fill="#FFFFFF" points="352.131,140.045 308.8,140.045 342.707,185.026 386.038,185.026    "/><polygon fill="#FFFFFF" points="411.127,140.045 378.068,140.045 411.127,183.891    "/><polygon fill="#FFFFFF" points="144.264,229.903 100.934,229.903 134.841,184.905 178.171,184.905    "/><polygon fill="#FFFFFF" points="213.503,229.903 170.202,229.903 204.079,184.905 247.41,184.905    "/><polygon fill="#FFFFFF" points="282.741,229.903 239.41,229.903 273.317,184.905 316.648,184.905    "/><polygon fill="#FFFFFF" points="351.979,229.903 308.648,229.903 342.586,184.905 385.917,184.905    "/><polygon fill="#FFFFFF" points="410.976,229.903 377.917,229.903 410.976,186.042    "/></g><rect fill="#3C5169" height="2.166" width="310.254" x="100.873" y="183.951"/><g><rect fill="#7C91A5" height="10.47" width="212.775" x="149.597" y="267.552"/><rect fill="#7C91A5" height="10.469" width="212.775" x="149.597" y="323.458"/><rect fill="#7C91A5" height="10.47" width="100.388" x="150.143" y="295.505"/><rect fill="#7C91A5" height="10.47" width="100.419" x="260.287" y="295.505"/></g></g></g><g/><g/><g/><g/><g/><g/></svg>