<?xml version="1.0" ?><!DOCTYPE svg  PUBLIC '-//W3C//DTD SVG 1.1//EN'  'http://www.w3.org/Graphics/SVG/1.1/DTD/svg11.dtd'><svg enable-background="new 0 0 128 128" id="Слой_1" version="1.1" viewBox="0 0 128 128" xml:space="preserve" xmlns="http://www.w3.org/2000/svg" xmlns:xlink="http://www.w3.org/1999/xlink"><g><g><g><path d="M64,2C29.8,2,2,29.8,2,64c0,19,8.5,36,22,47.4c10.8,9.1,68.7,9.3,79.4,0.5C117.2,100.5,126,83.3,126,64     C126,29.8,98.2,2,64,2z" fill="#43B19A"/></g></g><g><g><path d="M24,24v87.4c10.8,9.1,24.8,14.6,40,14.6s29.2-5.5,40-14.6V24H24z" fill="#FDFAFA"/></g></g><g><g><rect fill="#C45C44" height="5" width="64" x="32" y="37"/></g></g><g><g><rect fill="#44474A" height="2.5" width="30" x="66" y="61.5"/></g></g><g><g><rect fill="#44474A" height="2.5" width="30" x="66" y="67"/></g></g><g><g><rect fill="#44474A" height="2.5" width="30" x="66" y="72.5"/></g></g><g><g><rect fill="#44474A" height="2.5" width="30" x="66" y="78"/></g></g><g><g><rect fill="#44474A" height="2.5" width="30" x="66" y="83.5"/></g></g><g><g><rect fill="#44474A" height="2.5" width="30" x="66" y="89"/></g></g><g><g><rect fill="#44474A" height="2.5" width="30" x="66" y="94.5"/></g></g><g><g><rect fill="#44474A" height="2.5" width="30" x="66" y="100"/></g></g><g><g><rect fill="#44474A" height="2.5" width="30" x="66" y="105.5"/></g></g><g><g><rect fill="#44474A" height="2.5" width="30" x="66" y="111"/></g></g><g><g><path d="M66,116.5v2.5h26.6c1.1-0.6,2.3-1.2,3.4-1.9v-0.6H66z" fill="#44474A"/></g></g><g><g><rect fill="#44474A" height="2.5" width="30" x="32" y="100"/></g></g><g><g><rect fill="#44474A" height="2.5" width="30" x="32" y="105.5"/></g></g><g><g><rect fill="#44474A" height="2.5" width="30" x="32" y="111"/></g></g><g><g><path d="M62,116.5H32v0.6c1.1,0.7,2.2,1.3,3.4,1.9H62V116.5z" fill="#44474A"/></g></g><g><g><rect fill="#44474A" height="2.5" width="30" x="32" y="89"/></g></g><g><g><rect fill="#44474A" height="2.5" width="30" x="32" y="94.5"/></g></g><g><g><rect fill="#44474A" height="24.4" width="30" x="32" y="62.1"/></g></g><g><g><polygon fill="#44474A" points="69.9,48.6 71,49.9 72.5,48.6 71.3,47.3    "/></g></g><g><g><path d="M39.3,45.2c-0.3,0-0.3,0-0.7,0c0.4,0.1,0.9,0.1,1.1,0.5c0.2,0.4,0,0.6-0.2,0.7c-0.3,0.2-0.7,0.1-1.1,0     c-1.2-0.3-2.5-0.8-3.4-1c-0.7-0.1-1.2,0.1-1.7,0.4c-0.6,0.4-0.9,1.1-0.8,1.8c0,0.5,0.3,1,0.7,1.2c0.2,0.1,0.3,0.1,0.3,0.1     c-0.1-0.1-0.2-0.2-0.3-0.4c-0.1-0.3,0-0.7,0.3-0.9c0.2-0.2,0.6-0.2,0.9-0.2c0.3,0,2.3,0.6,2.9,0.7c0.4,0.1,1.1,0.3,1.7,0.4v2.1     l-1,0.8l1,0.8l0,3c0,0-0.8,0.6-2.1,0.4c-0.8-0.1-1.7-0.7-2-1.1l2.7-1.3v-4.6l-3.3,1.5c0.2-0.6,0.7-1.3,1.2-1.6     c0.2-0.1,0.3-0.2,0.5-0.3c-0.3,0-0.4,0.1-0.6,0.2c-1.7,0.6-3.2,2.3-3.2,4.3c0,1,0.2,1.9,0.7,2.7c0.7,1.1,1.8,1.8,2.9,2     c1,0.2,1.9,0.1,3.2-0.5c0.7-0.4,1.3-1.1,1.6-1.8c0.4-0.9,0.4-1.7,0.4-2c-0.1,0.1-0.1,0.2-0.1,0.2C40,54.9,39,55.5,39,55.5l0-2.9     l1-0.8l-1-0.8v-2.1c0,0,0.6,0,1.1-0.3c0.5-0.3,0.6-0.6,0.8-1.1c0.1-0.6,0.1-1.2-0.4-1.6C40.1,45.4,39.6,45.3,39.3,45.2z      M33.8,52.4c-0.1-1.1,0.3-1.9,0.3-1.9l1.3-0.6v4.4l-0.7,0.4C34.3,54.3,33.8,53.3,33.8,52.4z" fill="#44474A"/></g></g><g><g><path d="M52.1,56.4L50.6,55v-0.5l2.9-2.2l-1.5-2.6c0,0-1,0.6-1.7,1c-0.7,0.4-1.6,0.8-1.6,0.8l0,4.2l-0.6,0.5     l0.1,0.1l0.6-0.5l1.9,1.7l3.2-2.6L53.9,55L52.1,56.4z M50.6,50.7l1.5,2.5l-1.5,1.1V50.7z" fill="#44474A"/></g></g><g><g><path d="M47.1,51.3l-1.4-1.6l-1.9,1.6v-5.4l-2.3,1.8c0.1,0.1,0.4,0.1,0.4,0.6v7.6l-1,0.7l0.1,0.1l0.5-0.4l1.3,1.2     l2.1-1.7l-0.1-0.1l-0.5,0.4l-0.5-0.5l0-4.2l0.6-0.5l0.9,1.1c0,0,0,2.7,0,3.6c0,1,0,2.2-0.5,2.8c-0.5,0.6-0.7,0.6-1.2,0.8     c0.4,0.1,1.2,0.2,2.1-0.3c1-0.5,1.5-1.6,1.5-2.6l0-1.5l0-3.4l0.6-0.5l-0.1-0.1L47.1,51.3z" fill="#44474A"/></g></g><g><g><path d="M88.5,56.9L87,55.5V55l2.9-2.2l-1.5-2.6c0,0-1,0.6-1.7,1c-0.7,0.4-1.6,0.8-1.6,0.8l0,4.2l-0.6,0.5     l0.1,0.1l0.6-0.5l1.9,1.7l3.2-2.6l-0.1-0.1L88.5,56.9z M87,51.2l1.5,2.5L87,54.9V51.2z" fill="#44474A"/></g></g><g><g><polygon fill="#44474A" points="83.9,56.7 83.2,55.8 83.2,51.9 83.9,51.3 83.8,51.2 83.1,51.8 81.8,50.3 79.8,51.8 78.5,50.3      76.7,51.8 75.3,50.3 73.4,52 73.4,52.1 74,51.6 74.9,52.6 74.9,56.1 74.5,56.5 75.9,58.1 77.4,56.7 76.8,56.1 76.8,51.9      77.1,51.6 78.1,52.7 78.1,56.2 77.7,56.6 79.1,58.1 80.5,56.7 80,56.1 79.9,51.9 80.3,51.6 81.4,52.7 81.4,56.2 81,56.5      82.5,58.1 84.4,56.3 84.4,56.2    "/></g></g><g><g><polygon fill="#44474A" points="73.4,56.8 72.6,55.9 72.6,52 73.3,51.5 73.2,51.4 72.6,51.9 71.2,50.3 69.4,51.9 69.4,52      70,51.6 70.8,52.5 70.8,56.5 70.2,57 70.3,57.1 70.9,56.6 72.2,58.1 74,56.4 74,56.4    "/></g></g><g><g><path d="M68,45.8c-0.3,0-0.3,0-0.7,0c0.4,0.1,0.9,0.1,1.1,0.5c0.2,0.4,0,0.6-0.2,0.7c-0.3,0.2-0.7,0.1-1.1,0     c-1.2-0.3-2.5-0.8-3.4-1C63,46,62.5,46.3,62,46.6c-0.6,0.4-0.9,1.1-0.8,1.8c0,0.5,0.3,1,0.7,1.2c0.2,0.1,0.3,0.1,0.3,0.1     c-0.1-0.1-0.2-0.2-0.3-0.4c-0.1-0.3,0-0.7,0.3-0.9c0.2-0.2,0.6-0.2,0.9-0.2c0.3,0,2.3,0.6,2.9,0.7c0.4,0.1,1.1,0.3,1.7,0.4v2.1     l-1,0.8l1,0.8v3c0,0-0.8,0.6-2.1,0.4c-0.8-0.1-1.7-0.7-2-1.1l2.7-1.3v-4.6l-3.3,1.5c0.2-0.6,0.7-1.3,1.2-1.6     c0.2-0.1,0.3-0.2,0.5-0.3c-0.3,0-0.4,0.1-0.6,0.2c-1.7,0.6-3.2,2.3-3.2,4.3c0,1,0.2,1.9,0.7,2.7c0.7,1.1,1.8,1.8,2.9,2     c1,0.2,1.9,0.1,3.2-0.5c0.7-0.4,1.3-1.1,1.6-1.8c0.4-0.9,0.4-1.7,0.4-2c-0.1,0.1-0.1,0.2-0.1,0.2c-0.6,1.3-1.7,1.9-1.7,1.9l0-2.9     l1-0.8l-1-0.8v-2.1c0,0,0.6,0,1.1-0.3c0.5-0.3,0.6-0.6,0.8-1.1c0.1-0.6,0.1-1.2-0.4-1.6C68.9,46,68.3,45.8,68,45.8z M62.5,53     c-0.1-1.1,0.3-1.9,0.3-1.9l1.3-0.6v4.4l-0.7,0.4C63,54.9,62.5,53.8,62.5,53z" fill="#44474A"/></g></g><g><g><path d="M95.7,49.8c0,0.2,0.1,0.9-0.8,0.9c-0.6,0-1.1-0.6-1.1-0.6s-0.7,0.5-1.4,0.9c-0.7,0.4-1.5,0.8-1.5,0.8v2     l1.2,1.1c-1,1-1.6,1.6-1.4,2.6c0.2,1,1.2,1.2,1.4,1.1c-0.6-0.2-0.8-0.8-0.4-1.1c0.7-0.5,1.4,0.5,1.4,0.5c1.4-1,2.9-1.8,2.9-1.8     v-2.6l-1.3-1C96.3,50.9,95.9,50.1,95.7,49.8z M92.7,51.1c0,0,0.4,0.8,1.2,1c0.9,0.3,1.6-0.6,1.6-0.6c-0.6,1.1-2.1,2.3-2.1,2.3     l-0.7-0.6V51.1z M94.3,57.2c0,0-0.4-1.2-1.5-1.4c-1.1-0.2-1.8,0.9-1.8,0.9c0.2-0.7,1.7-2,2.5-2.8l0.8,0.7V57.2z" fill="#44474A"/></g></g><g><g><path d="M57,74.3c0-5.5-4.5-10-10-10c0,0,0,0,0,0c-5.5,0-10,4.5-10,10c0,5.5,4.5,10,10,10c0,0,0,0,0,0     C52.5,84.3,57,79.8,57,74.3" fill="#FFFFFF"/></g></g><g><g><path d="M56.3,70.7l-0.5,0l-0.3-0.3L55.5,70l-0.3,0.1l-0.1,0.6l-0.4-0.4l0-0.4l-0.4-0.3l-0.1-0.1h-0.4l0.1,0.4     l0.5,0.3l0.1,0.1l-0.1,0.1l0,0.3l-0.3,0.1l-0.2,0l-0.1-0.2l0.4,0l0.1-0.1l-0.8-0.5l-0.1-0.2l-0.3,0.3l-0.3-0.1l-0.5,0.6l-0.1,0.2     l-0.3,0l-0.5,0l-0.3-0.1L51,70l0.1-0.3l0.5-0.1l0.5,0.1l0.1-0.3L52,69.4L52,69l0.5-0.1l0.4-0.5l0.4-0.1l0.3,0h0.1l-0.1-0.5     L53.3,68l-0.1-0.4l-0.2,0l0-0.2l0.2-0.2l0.5-0.2l0.1-0.2c-1.8-1.5-4.1-2.5-6.6-2.5c0,0,0,0,0,0c-2.2,0-4.2,0.7-5.9,1.9l0.5,0     l0.2,0.1l0.4,0.1l0,0.2l0.7,0l-0.1-0.2l-0.6,0l0.1-0.1l0-0.2h-0.5l0.6-0.4H43l0.3,0.4l0.4,0l0.3-0.3l0.2,0.1l-0.4,0.4     c0,0-0.5,0-0.5,0c0,0,0,0.3,0,0.3l0.6,0l0.1-0.2l0.4,0l0.1-0.2l-0.2,0l0.1-0.2l0.2-0.1l0.7,0l-0.4,0.3l0.1,0.3l0.4,0.1l0-0.5     l0.4-0.2l0.6-0.1l0.7,0.3l0.2,0.1v0.4l0.3,0.1l-0.1,0.3H47H47l-0.1,0.3l-1-0.2l0.8-0.4l-0.3-0.2l-0.7,0.1l-0.1,0.1l0,0l0,0     l-0.2,0.2l-0.3,0l0,0.2l0.1,0l0,0.1L45,67l0,0.1l-0.2,0l0-0.3L44.2,67l-0.9,0.5l0.1,0.4l0.2,0.2l0.5,0.1v0.6l0.2,0l0.2-0.4     l0.5-0.2v-0.7l0.3-0.2l0.7,0.2l-0.1,0.4h0.2l0.5-0.3l0,0.6l0.2,0.1l0.2,0.1l0,0.3L47,68.7l0,0l-0.2,0.1l0,0.1L47,69l0.3,0.1     l0,0.2l-0.1,0c0,0,0,0,0,0l-0.2,0l-0.4-0.1l0-0.2h0l0.2-0.1v-0.2l-0.2,0l0,0.1l-0.3,0l0,0v0l-0.1,0L46,68.7l-0.1,0h-0.2l-0.1,0.1     V69l0.2,0.1l0.2,0l0,0l-0.2,0.2l-0.1-0.1l-0.2,0l-0.4,0.4l0.1,0l-0.7,0.4l-0.6,0.6l0,0.3l-0.6,0.4l-0.3,0.3l0,0.6L42.5,72l0-0.4     l-1.2,0l-0.6,0.3l-0.3,0.5l-0.1,0.4l0.2,0.4l0.5,0.1l0.8-0.5l0.1,0.3l-0.2,0.4l0.6,0.1l0.1,0.9l0.8,0.1l0.5-0.6l0.6,0.1l0.2,0.3     l0.6,0l0-0.2l0.3,0.2l0.4,0.6l0.6,0l0.2,0.4l0,0.5L47,76l0.2,0.1l0.9,0l0.3,0.4l0.4,0.1L48.7,77l-0.4,0.5l-0.1,1.2l-0.4,0.3     l-0.6,0L47,79.4v0l0.1,0.6L47,80.2l-0.5,0.6l-0.2,0.4l-0.6,0.3l-0.4,0.1l0,0.2l0.3,0.1l0,0.2l-0.2,0.2l0.1,0.2l0.3,0l0,0.2     l-0.1,0.2l0,0.2l0.4,0.4l-0.1,0.2l-0.6,0L44.9,83l-0.5-0.8l0.1-0.8L44.1,81l0.1-0.8l-0.2-0.1v-1.7c0,0-0.6-0.4-0.6-0.4     c0,0-0.3-0.1-0.3-0.1l-0.1-0.3l-0.8-0.9l0.1-0.3l0-0.6l0.5-0.4l-0.1-0.6l-0.8-0.1L41.5,74l-0.4-0.1l-0.3-0.1l0-0.2l-0.3,0v0.1     l-0.9-0.2l-0.4-0.5l0.1-0.3l-0.6-0.8l-0.1-0.6h-0.2l0.1,0.6l0.4,0.6l0,0.2l-0.3,0l-0.4-0.7v-0.8L37.8,71v-0.6     c-0.5,1.2-0.8,2.5-0.8,3.9c0,5.5,4.5,10,10,10c0,0,0,0,0,0c3.1,0,5.9-1.4,7.7-3.7h-0.3v-0.7l-0.4-0.5v-0.8l-0.3-0.3l0-0.3     l0.4-0.7l-0.7-1.2l0.1-0.8l-0.6-0.1l-0.2-0.2h-0.4L52,75.1h-0.7l0,0.1h-0.4l-1-1.1l0-0.8l0.2-0.1l0.1-0.3h-0.2l-0.1-0.3l1.1-0.8     v-0.6l0.5-0.3l0.2,0h0.4l0.3-0.2l1.1-0.1v0.6l0.9,0.2l0.2,0.1h0.2v-0.3l0.5,0l0.5,0.4h0.8l0.1-0.1C56.5,71.2,56.4,71,56.3,70.7z" fill="#65C8CE"/></g></g></g></svg>