<?xml version="1.0" ?><!DOCTYPE svg  PUBLIC '-//W3C//DTD SVG 1.1//EN'  'http://www.w3.org/Graphics/SVG/1.1/DTD/svg11.dtd'><svg enable-background="new 0 0 64 64" height="64px" id="Layer_1" version="1.1" viewBox="0 0 64 64" width="64px" xml:space="preserve" xmlns="http://www.w3.org/2000/svg" xmlns:xlink="http://www.w3.org/1999/xlink"><g><g><g><defs><circle cx="-224" cy="32" id="SVGID_1_" r="31.5"/></defs><clipPath id="SVGID_2_"><use overflow="visible" xlink:href="#SVGID_1_"/></clipPath></g></g></g><g><circle cx="32" cy="32" fill="#F76B4A" r="31.5"/><g><g><defs><circle cx="32" cy="32" id="SVGID_3_" r="31.5"/></defs><clipPath id="SVGID_4_"><use overflow="visible" xlink:href="#SVGID_3_"/></clipPath><g clip-path="url(#SVGID_4_)"><g><g><path d="M20.6,53.2c0.9,1,2.4,1,3.4,0.1c1-0.9,1.1-2.4,0.2-3.4l-0.6-0.7L20,52.5L20.6,53.2z" fill="#E57449"/><path d="M13.9,38.4c-0.9-1-2.4-1-3.4-0.1c-1,0.9-1.1,2.4-0.2,3.4l0.6,0.7l3.7-3.3L13.9,38.4z" fill="#575453"/><rect fill="#757270" height="4.9" transform="matrix(0.6697 0.7426 -0.7426 0.6697 39.6661 2.3492)" width="13.8" x="10.3" y="43.3"/></g><rect fill="#575453" height="1" transform="matrix(0.7426 -0.6697 0.6697 0.7426 -24.4661 19.8353)" width="4.9" x="11.1" y="41.3"/><rect fill="#575453" height="1" transform="matrix(0.7425 -0.6699 0.6699 0.7425 -25.1188 21.1503)" width="4.9" x="12.5" y="42.7"/><rect fill="#575453" height="1" transform="matrix(0.7427 -0.6696 0.6696 0.7427 -25.7264 22.3776)" width="4.9" x="13.8" y="44.2"/><rect fill="#575453" height="1" transform="matrix(0.7427 -0.6696 0.6696 0.7427 -26.3441 23.6215)" width="4.9" x="15.1" y="45.6"/><rect fill="#575453" height="1" transform="matrix(0.7425 -0.6698 0.6698 0.7425 -26.9968 24.9356)" width="4.9" x="16.5" y="47.1"/><rect fill="#575453" height="1" transform="matrix(0.7426 -0.6697 0.6697 0.7426 -27.6749 26.1414)" width="4.9" x="17.7" y="48.6"/><rect fill="#575453" height="1" transform="matrix(0.7425 -0.6698 0.6698 0.7425 -28.3237 27.4504)" width="4.9" x="19.1" y="50.1"/></g><g><g><path d="M43.4,53.2c-0.9,1-2.4,1-3.4,0.1c-1-0.9-1.1-2.4-0.2-3.4l0.6-0.7l3.7,3.3L43.4,53.2z" fill="#E57449"/><path d="M50.2,38.4c0.9-1,2.4-1,3.4-0.1c1,0.9,1.1,2.4,0.2,3.4l-0.6,0.7L49.6,39L50.2,38.4z" fill="#575453"/><rect fill="#757270" height="4.9" transform="matrix(-0.6697 0.7426 -0.7426 -0.6697 112.0599 41.6476)" width="13.8" x="39.9" y="43.3"/></g><rect fill="#575453" height="1" transform="matrix(-0.7424 -0.6699 0.6699 -0.7424 59.7388 106.4773)" width="4.9" x="47.9" y="41.3"/><rect fill="#575453" height="1" transform="matrix(-0.7426 -0.6697 0.6697 -0.7426 56.6004 108.1195)" width="4.9" x="46.6" y="42.7"/><rect fill="#575453" height="1" transform="matrix(-0.7426 -0.6697 0.6697 -0.7426 53.2776 109.8387)" width="4.9" x="45.3" y="44.2"/><rect fill="#575453" height="1" transform="matrix(-0.7426 -0.6697 0.6697 -0.7426 49.9541 111.5673)" width="4.9" x="44" y="45.7"/><rect fill="#575453" height="1" transform="matrix(-0.7425 -0.6698 0.6698 -0.7425 46.7856 113.2082)" width="4.9" x="42.7" y="47.1"/><rect fill="#575453" height="1" transform="matrix(-0.7426 -0.6697 0.6697 -0.7426 43.471 114.9362)" width="4.9" x="41.4" y="48.6"/><rect fill="#575453" height="1" transform="matrix(-0.7426 -0.6697 0.6697 -0.7426 40.2284 116.4137)" width="4.9" x="40" y="50"/></g><g><g><g><path d="M37.2,44.8c0,0-1.8,0.4-5.2,0.4c-3.4,0-5.2-0.3-5.2-0.3c1.7,5.8-1,8.4-1,8.4l4.5,0.8h3.6l4.5-0.8         C38.3,53.2,35.5,50.6,37.2,44.8z" fill="#333333"/></g></g><g><g><g><path d="M27.2,46.7c-7.3,0.8-13.1,3.2-13.8,6c-0.4,1.5-0.9,4.5-1.3,7.3c5.4,4.4,12.4,7.1,19.9,7.1          c4.5,0,8.7-0.9,12.6-2.6L27.2,46.7z" fill="#333333"/></g></g><g><g><path d="M27.2,46.7c-0.8,0.1-1.7,0.2-2.5,0.3l17.9,18.3c0.7-0.2,1.4-0.5,2-0.8L27.2,46.7z" fill="#666666"/></g></g><g><g><path d="M50.7,52.7c-0.8-2.8-6.6-5.2-13.8-6L19.4,64.5c3.9,1.7,8.1,2.6,12.6,2.6c7.6,0,14.5-2.7,19.9-7.1          C51.5,57.2,51.1,54.2,50.7,52.7z" fill="#333333"/></g></g><g><g><path d="M36.8,46.7L19.4,64.5c0.7,0.3,1.3,0.6,2,0.8L39.3,47C38.5,46.9,37.7,46.8,36.8,46.7z" fill="#666666"/></g></g></g></g><path d="M49,31.2C49,39.4,42.4,46,34.2,46h-4.5C21.6,46,15,39.4,15,31.2v-7.5C15,15.6,21.6,9,29.8,9h4.5      C42.4,9,49,15.6,49,23.8V31.2z" fill="#333333"/><g opacity="0.1"><path d="M49,32v-7.9C49,16,42.6,9,34.5,9H33v37h1.5C42.6,46,49,40.2,49,32z"/></g><path d="M47,30.4c0-1.9-1.5-3.4-3.4-3.4H20.4c-1.9,0-3.4,1.5-3.4,3.4v0.3c0,1.9,1.5,3.4,3.4,3.4h23.3      c1.9,0,3.4-1.5,3.4-3.4L47,30.4L47,30.4z" fill="#FFFFFF"/><ellipse cx="25.2" cy="30.4" fill="#233540" rx="1.7" ry="1.9"/><path d="M25.8,28.6c0,0-2.5-1.2-5.6,0.6" fill="#233540"/><ellipse cx="25.5" cy="29.5" fill="#FFFFFF" rx="0.5" ry="0.5"/><ellipse cx="38.5" cy="30.4" fill="#233540" rx="1.7" ry="1.9"/><path d="M38,28.6c0,0,2.4-1.1,5.5,0.6" fill="#233540"/><ellipse cx="38.3" cy="29.5" fill="#FFFFFF" rx="0.5" ry="0.5"/></g></g></g></g></svg>