<?xml version="1.0" ?><!DOCTYPE svg  PUBLIC '-//W3C//DTD SVG 1.1//EN'  'http://www.w3.org/Graphics/SVG/1.1/DTD/svg11.dtd'><svg height="512px" style="enable-background:new 0 0 512 512;" version="1.1" viewBox="0 0 512 512" width="512px" xml:space="preserve" xmlns="http://www.w3.org/2000/svg" xmlns:xlink="http://www.w3.org/1999/xlink"><g id="Layer_20"><g><circle cx="256" cy="256" r="256" style="fill:#FFCE35;"/></g><g><g><g><polygon points="448,128 448,400 64,400 64,128 448,128     " style="fill:#FFFFFF;"/></g><g><rect height="48" style="fill:#FF642F;" width="96" x="96" y="272"/></g><g><rect height="4" style="fill:#FF642F;" width="96" x="96" y="334"/></g><g><rect height="4" style="fill:#FF642F;" width="96" x="96" y="350"/></g><g><rect height="4" style="fill:#FF642F;" width="96" x="96" y="366"/></g><g><rect height="48" style="fill:#FF642F;" width="96" x="208" y="272"/></g><g><rect height="4" style="fill:#FF642F;" width="96" x="208" y="334"/></g><g><rect height="4" style="fill:#FF642F;" width="96" x="208" y="350"/></g><g><rect height="4" style="fill:#FF642F;" width="96" x="208" y="366"/></g><g><rect height="48" style="fill:#FF642F;" width="96" x="320" y="272"/></g><g><rect height="4" style="fill:#FF642F;" width="96" x="320" y="334"/></g><g><rect height="4" style="fill:#FF642F;" width="96" x="320" y="350"/></g><g><rect height="4" style="fill:#FF642F;" width="96" x="320" y="366"/></g><g><rect height="96" style="fill:#FF642F;" width="320" x="96" y="160"/></g></g><g><rect height="16" style="fill:#08191E;" width="384" x="64" y="112"/></g></g></g><g id="Layer_1"/></svg>