<?xml version="1.0" ?><svg id="Layer_1" style="enable-background:new 0 0 128 128;" version="1.1" viewBox="0 0 128 128" xml:space="preserve" xmlns="http://www.w3.org/2000/svg" xmlns:xlink="http://www.w3.org/1999/xlink"><style type="text/css">
	.st0{fill:#F05A3C;}
	.st1{fill:#F3F3F3;}
	.st2{fill:#4DAEE2;}
	.st3{fill:#496683;}
	.st4{fill:#CDCCCC;}
	.st5{fill:#4C94D0;}
	.st6{fill:#C3C3C3;}
	.st7{fill:#66BE6E;}
	.st8{fill:#FF577C;}
	.st9{fill:#2D3E50;}
	.st10{fill:#FFDB5A;}
	.st11{fill:#61C7D1;}
	.st12{fill:#223046;}
	.st13{fill:#FFFFFF;}
	.st14{fill:#8058A4;}
	.st15{fill:#E7E7E7;}
	.st16{fill:none;stroke:#A8A7A8;stroke-width:4;stroke-linecap:round;stroke-linejoin:round;stroke-miterlimit:10;}
	.st17{fill:#FFDB4E;}
	.st18{fill:#EF567B;}
	.st19{fill:#FDDA52;}
	.st20{fill:#1E2E57;}
	.st21{fill:#CECECE;}
	.st22{fill:#E72A27;}
	.st23{fill:#6F3434;}
	.st24{fill:#4A71FF;}
	.st25{fill:#F0F0F1;}
	.st26{fill:#F0C318;}
	.st27{fill:#35B56F;}
	.st28{fill:#0596E3;}
	.st29{fill:#7C3D96;}
	.st30{fill:#9200F1;}
	.st31{fill:#2E8CBA;}
	.st32{fill:#30DF8B;}
	.st33{fill:#0A5C5D;}
	.st34{fill:none;stroke:#F3F3F3;stroke-width:4;stroke-linecap:round;stroke-linejoin:round;stroke-miterlimit:10;}
</style><g><g><path class="st0" d="M15.3,0.5h7.2l82.9,0h7.2c8.2,0,14.8,6.6,14.8,14.8l0,7.2l0,90.1c0,1-0.1,2-0.3,3c-0.4,1.9-1.2,3.7-2.2,5.3    c-2.7,3.9-7.2,6.5-12.3,6.5h0l-97.3,0h0c-5.1,0-9.6-2.6-12.3-6.5c-1.1-1.6-1.8-3.4-2.2-5.3c-0.2-1-0.3-2-0.3-3l0-90.1v-7.2    C0.5,7.1,7.1,0.5,15.3,0.5z"/></g><g><g><path class="st25" d="M91.5,24H36.5c-1.7,0-3,1.3-3,3v74c0,1.7,1.3,3,3,3h54.9c1.7,0,3-1.3,3-3V27C94.5,25.3,93.1,24,91.5,24z"/></g><g><path class="st2" d="M59.4,60.6H43.3c-1.1,0-2-0.9-2-2V37.1c0-1.1,0.9-2,2-2h16.1c1.1,0,2,0.9,2,2v21.5     C61.4,59.7,60.5,60.6,59.4,60.6z M45.3,56.6h12.1V39.1H45.3V56.6z"/></g><g><path class="st8" d="M84.7,39.1H70.6c-1.1,0-2-0.9-2-2s0.9-2,2-2h14.1c1.1,0,2,0.9,2,2S85.8,39.1,84.7,39.1z"/></g><g><path class="st6" d="M84.7,49.9H70.6c-1.1,0-2-0.9-2-2s0.9-2,2-2h14.1c1.1,0,2,0.9,2,2S85.8,49.9,84.7,49.9z"/></g><g><path class="st6" d="M84.7,60.6H70.6c-1.1,0-2-0.9-2-2s0.9-2,2-2h14.1c1.1,0,2,0.9,2,2S85.8,60.6,84.7,60.6z"/></g><g><path class="st6" d="M84.7,71.4H43.3c-1.1,0-2-0.9-2-2s0.9-2,2-2h41.4c1.1,0,2,0.9,2,2S85.8,71.4,84.7,71.4z"/></g><g><path class="st6" d="M84.7,82.1H43.3c-1.1,0-2-0.9-2-2s0.9-2,2-2h41.4c1.1,0,2,0.9,2,2S85.8,82.1,84.7,82.1z"/></g><g><path class="st6" d="M84.7,92.9H43.3c-1.1,0-2-0.9-2-2s0.9-2,2-2h41.4c1.1,0,2,0.9,2,2S85.8,92.9,84.7,92.9z"/></g></g></g></svg>