<?xml version="1.0" ?><!DOCTYPE svg  PUBLIC '-//W3C//DTD SVG 1.1//EN'  'http://www.w3.org/Graphics/SVG/1.1/DTD/svg11.dtd'><svg enable-background="new 0 0 512 512" height="512px" id="Layer_1" version="1.1" viewBox="0 0 512 512" width="512px" xml:space="preserve" xmlns="http://www.w3.org/2000/svg" xmlns:xlink="http://www.w3.org/1999/xlink"><g><path d="M512,256c0,137.32-108.15,249.43-243.95,255.72c-4,0.189-8.01,0.28-12.05,0.28C114.72,512,0,397.48,0,256    C0,114.62,114.62,0,256,0c132.95,0,242.22,101.35,254.79,230.98C511.59,239.21,512,247.56,512,256z" fill="#26B999"/><g><path d="M512,256c0,137.32-108.15,249.43-243.95,255.72l-88.89-87.22V368.98h38.34     c14.54-9.52,19.31-21.2,21.64-32.81c1.2-8.62,0.01-17.62-6.12-25.18c-1.11-0.9-2.05-1.91-2.81-3.03     c-0.28-0.25-0.54-0.52-0.82-0.77h0.34c0-0.01,0-0.01,0-0.01h-0.34c-3.2-2.23-5.11-5.44-5.77-8.86     c-0.015-0.014-61.581-61.612-61.81-61.86c-18.58-17.01-27.64-43.24-35.51-66.08c-4.87-14.1-9.45-27.42-15.47-36.54     c-2.25-3.41-2.44-7.77-0.49-11.36c1.95-3.59,5.73-5.83,9.83-5.83h38.03c3.53-0.21,6.89-1,10.01-2.27     c-0.65-9.04-1.11-16.18-1.62-20.52l178.83-0.01c0,0,22.16,22.798,22.16,22.8h24.24c4.11,0,7.89,2.24,9.84,5.83v0.01L512,256z" opacity="0.15"/><g><g><g><path d="M295.078,369.36h-78.156c14.996-9.589,19.854-21.429,22.222-33.191        c1.404-10.113-0.448-20.767-9.759-28.983h53.23c-7.546,6.619-10.104,14.801-10.199,23.034v0.06        c-0.008,1.975,0.147,3.941,0.44,5.89C275.225,347.94,280.083,359.771,295.078,369.36z" fill="#EFC849"/><rect fill="#0E2037" height="55.521" width="153.68" x="179.158" y="368.98"/><rect fill="#E6E7E8" height="42.161" opacity="0.3" width="93.026" x="209.485" y="375.66"/><rect fill="#E6E7E8" height="32.62" width="81.654" x="215.173" y="380.429"/><rect fill="#F29C21" height="4.692" width="52.139" x="229.931" y="398.28"/><rect fill="#F29C21" height="4.69" width="29.609" x="241.194" y="390.561"/><path d="M282.615,307.186c-7.546,6.619-10.104,14.801-10.199,23.034l-12.67-14.964l-30.361-8.07        H282.615z" fill="#F29C21" opacity="0.7"/></g><path d="M207.407,232.193c-34.234-1.922-46.098-28.789-59.96-69.011c-2.925-8.494-5.762-16.73-8.983-24.325       h68.943v-22.209h-87.232c-4.102,0-7.881,2.24-9.833,5.829c-1.95,3.589-1.763,7.957,0.491,11.367       c6.021,9.115,10.602,22.434,15.466,36.533c12.601,36.574,28.231,81.854,81.108,84.043V232.193z" fill="#EFC849"/><path d="M304.598,232.193c34.233-1.922,46.099-28.789,59.961-69.011c2.922-8.494,5.761-16.73,8.975-24.325       h-68.936v-22.209h87.224c4.108,0,7.887,2.24,9.833,5.829c1.956,3.589,1.765,7.957-0.486,11.367       c-6.017,9.115-10.608,22.434-15.463,36.533c-12.607,36.574-28.237,81.854-81.108,84.043V232.193z" fill="#EFC849"/><path d="M256,291.892c-85.216,0-85.785-167.604-89.414-198.028h178.828       C342.557,117.794,342.841,291.892,256,291.892z" fill="#EFC849"/><path d="M200.935,93.943h-14.349c2.685,22.511,3.697,132.043,38.561,181.296       C207.407,232.193,200.935,165.35,200.935,93.943z" fill="#FFFFFF" opacity="0.4"/><path d="M304.153,93.853c-2.598,21.85-2.598,169.035-68.765,194.321       c6.261,2.418,13.104,3.721,20.624,3.721c86.842,0,86.535-174.112,89.411-198.042H304.153z" fill="#F29C21" opacity="0.4"/><path d="M282.612,307.183c-17.743,0-35.481,0-53.225,0c-8.073-5.637-8.073-17.523,0-23.16       c17.744,0,35.482,0,53.225,0C290.685,289.66,290.685,301.545,282.612,307.183z" fill="#EFC849"/></g><g><path d="M179.158,64.794c0.948,15.693,13.543,28.208,29.34,29.147c-15.796,0.941-28.392,13.455-29.34,29.149       c-0.948-15.694-13.543-28.208-29.339-29.149C165.615,93.002,178.21,80.487,179.158,64.794z" fill="#FFFFFF"/><path d="M199.023,123.763c0.469,7.836,6.748,14.088,14.629,14.556c-7.874,0.468-14.16,6.714-14.629,14.549       c-0.469-7.835-6.755-14.081-14.629-14.549C192.275,137.852,198.554,131.6,199.023,123.763z" fill="#FFFFFF"/><path d="M160.467,115.609c0.239,4.032,3.47,7.243,7.514,7.483c-4.049,0.244-7.275,3.452-7.514,7.48       c-0.247-4.028-3.471-7.236-7.522-7.48C156.992,122.853,160.22,119.642,160.467,115.609z" fill="#FFFFFF"/><path d="M216.27,97.414c0.258,4.157,3.605,7.468,7.799,7.709c-4.194,0.251-7.53,3.57-7.772,7.733       c-0.258-4.152-3.606-7.461-7.799-7.705c4.193-0.256,7.527-3.574,7.772-7.733V97.414z" fill="#FFFFFF"/></g></g></g></g></svg>